<?xml version="1.0" encoding="utf-8"?>
<!-- Generator: Adobe Illustrator 16.0.0, SVG Export Plug-In . SVG Version: 6.00 Build 0)  -->
<!DOCTYPE svg PUBLIC "-//W3C//DTD SVG 1.1//EN" "http://www.w3.org/Graphics/SVG/1.1/DTD/svg11.dtd">
<svg version="1.1" id="Layer_1" xmlns="http://www.w3.org/2000/svg" xmlns:xlink="http://www.w3.org/1999/xlink" x="0px" y="0px"
	 width="414px" height="121px" viewBox="0 0 414 121" enable-background="new 0 0 414 121" xml:space="preserve">
<g>
	<g>
		<g>
			<path fill="#D57E29" d="M47.729,25.297c2.145,0.079,4.15,0.399,6.021,0.975c1.869,0.564,3.513,1.407,4.929,2.505
				c1.418,1.099,2.534,2.491,3.351,4.161c0.817,1.668,1.227,3.667,1.227,5.987c0,5.153-1.345,8.907-4.031,11.269
				c-2.687,2.361-6.519,3.641-11.495,3.836v4.723h5.395v1.475h-17.76v-1.475h5.395V54.03c-2.51-0.08-4.741-0.419-6.7-1.034
				c-1.958-0.608-3.618-1.521-4.958-2.743c-1.339-1.217-2.374-2.763-3.08-4.631s-1.06-4.102-1.06-6.697
				c0-2.32,0.421-4.328,1.252-6.016c0.842-1.692,1.972-3.087,3.401-4.189c1.438-1.107,3.117-1.938,5.039-2.514
				c1.93-0.562,3.962-0.894,6.104-0.974v-2.944h-5.395V20.81h17.758v1.478h-5.395v3.009H47.729z M40.759,26.774
				c-1.526,0.119-2.796,0.422-3.813,0.91c-1.018,0.496-1.821,1.099-2.396,1.832c-0.579,0.729-0.991,1.524-1.229,2.387
				c-0.233,0.864-0.353,1.714-0.353,2.539v8.734c0,1.061,0.074,2.114,0.223,3.157c0.138,1.04,0.479,2.004,1.003,2.891
				c0.527,0.882,1.31,1.621,2.343,2.21c1.036,0.592,2.442,0.942,4.224,1.064V26.774z M47.729,52.497
				c1.746-0.122,3.115-0.472,4.114-1.064c0.998-0.589,1.753-1.317,2.261-2.182c0.509-0.867,0.825-1.826,0.952-2.892
				c0.127-1.063,0.191-2.123,0.191-3.184v-8.734c0-0.824-0.118-1.674-0.354-2.539c-0.236-0.863-0.637-1.647-1.197-2.355
				c-0.563-0.709-1.326-1.32-2.288-1.83c-0.963-0.511-2.188-0.825-3.679-0.944V52.497z"/>
			<path fill="#D57E29" d="M77.093,61.109c-1.637,0-3.063-0.296-4.279-0.882c-1.216-0.595-2.241-1.417-3.078-2.479
				c-0.834-1.062-1.46-2.339-1.878-3.834c-0.419-1.497-0.626-3.147-0.626-4.958c0-1.653,0.311-3.227,0.929-4.721
				c0.614-1.494,1.442-2.821,2.476-3.982c1.037-1.162,2.252-2.073,3.65-2.742c1.397-0.67,2.859-1.004,4.385-1.004v1.178
				c-1.343,0-2.352,0.275-3.022,0.826c-0.672,0.553-1.152,1.318-1.442,2.3c-0.293,0.986-0.448,2.175-0.465,3.573
				c-0.02,1.395-0.025,2.919-0.025,4.572c0,1.731,0.019,3.273,0.054,4.631c0.037,1.357,0.154,2.508,0.354,3.454
				c0.198,0.941,0.5,1.657,0.898,2.151c0.399,0.493,0.98,0.739,1.741,0.739c0.654,0,1.153-0.142,1.501-0.413
				c0.344-0.277,0.597-0.697,0.761-1.271c0.162-0.568,0.264-1.314,0.301-2.24c0.035-0.924,0.054-2.037,0.054-3.333v-6.079h5.771
				v6.079c0,1.297,0.021,2.41,0.059,3.333c0.035,0.926,0.135,1.671,0.297,2.24c0.164,0.573,0.419,0.993,0.766,1.271
				c0.344,0.271,0.842,0.413,1.495,0.413c0.729,0,1.29-0.246,1.689-0.739c0.4-0.494,0.699-1.21,0.898-2.151
				c0.199-0.946,0.328-2.097,0.381-3.454c0.057-1.357,0.081-2.9,0.081-4.631c0-1.653-0.01-3.177-0.024-4.572
				c-0.021-1.398-0.177-2.587-0.463-3.573c-0.292-0.982-0.773-1.747-1.443-2.3c-0.673-0.551-1.681-0.826-3.025-0.826v-1.178
				c1.525,0,2.987,0.334,4.388,1.004c1.396,0.669,2.613,1.572,3.646,2.711c1.036,1.141,1.863,2.458,2.479,3.955
				c0.618,1.497,0.927,3.067,0.927,4.72c0,1.769-0.211,3.4-0.626,4.896c-0.419,1.498-1.045,2.784-1.881,3.867
				c-0.834,1.083-1.86,1.929-3.077,2.535c-1.217,0.608-2.641,0.915-4.275,0.915c-1.271,0-2.37-0.399-3.297-1.207
				c-0.925-0.811-1.55-1.744-1.88-2.803c-0.324,1.059-0.95,1.993-1.878,2.803C79.458,60.709,78.359,61.109,77.093,61.109z"/>
			<path fill="#D57E29" d="M117.724,58.518c0.62,0.079,1.165,0.258,1.637,0.558c0.471,0.298,0.854,0.7,1.144,1.211
				c0.292,0.509,0.437,1.122,0.437,1.829c0,0.903-0.227,1.624-0.682,2.153c-0.454,0.526-1.016,0.944-1.688,1.235
				c-0.673,0.293-1.404,0.496-2.206,0.593c-0.8,0.092-1.542,0.15-2.233,0.15c-0.652,0-1.307-0.088-1.961-0.271
				c-0.653-0.179-1.289-0.381-1.907-0.619l0.655-1.592c0.979,0.357,1.979,0.534,2.996,0.534c0.326,0,0.68-0.03,1.063-0.088
				c0.379-0.063,0.744-0.157,1.089-0.298c0.345-0.146,0.626-0.331,0.843-0.59c0.22-0.262,0.328-0.598,0.328-1.037
				c0-0.553-0.165-0.957-0.49-1.237c-0.325-0.272-0.728-0.474-1.198-0.588c-0.476-0.121-0.974-0.189-1.499-0.209
				c-0.525-0.017-0.989-0.025-1.389-0.025c-1.706,0-3.261-0.305-4.657-0.915c-1.397-0.614-2.605-1.458-3.621-2.536
				c-1.019-1.083-1.799-2.352-2.343-3.806c-0.545-1.459-0.817-3.031-0.817-4.724c0-1.769,0.327-3.372,0.981-4.807
				c0.652-1.436,1.541-2.667,2.667-3.69c1.125-1.021,2.442-1.817,3.948-2.388c1.509-0.573,3.134-0.855,4.876-0.855
				c0.905,0,1.88,0.11,2.914,0.322c1.035,0.22,2,0.573,2.887,1.064c0.891,0.492,1.626,1.12,2.208,1.89
				c0.581,0.765,0.869,1.699,0.869,2.803c0,0.786-0.271,1.541-0.815,2.271c-0.546,0.728-1.253,1.092-2.123,1.092
				c-0.943,0-1.798-0.218-2.563-0.652c-0.762-0.431-1.146-1.217-1.146-2.355c0-0.433,0.103-0.8,0.303-1.093
				c0.199-0.298,0.406-0.549,0.626-0.769c0.217-0.214,0.427-0.423,0.626-0.621c0.199-0.196,0.299-0.431,0.299-0.708
				c0-0.353-0.128-0.659-0.38-0.912c-0.256-0.258-0.554-0.474-0.897-0.651c-0.348-0.177-0.729-0.305-1.146-0.385
				c-0.416-0.078-0.789-0.117-1.115-0.117c-1.234,0-2.271,0.346-3.104,1.034c-0.837,0.687-1.5,1.534-1.988,2.539
				c-0.491,1.001-0.837,2.091-1.037,3.272c-0.196,1.182-0.297,2.263-0.297,3.246c0,1.575,0.09,3.028,0.272,4.364
				c0.179,1.338,0.508,2.499,0.979,3.483c0.473,0.984,1.126,1.748,1.962,2.298c0.834,0.552,1.905,0.832,3.214,0.832
				c0.289,0,0.817-0.079,1.579-0.235C116.472,58.438,117.106,58.438,117.724,58.518z"/>
			<path fill="#D57E29" d="M139.188,60.228v-1.475h3.481V38.336h-3.919V36.86c1.671,0.079,3.314,0.03,4.93-0.15
				c1.616-0.173,3.242-0.421,4.875-0.737v22.78h3.379v1.475H139.188z M153.292,36.861h11.713v1.476h-4.792l-5.993,6.252
				l10.24,14.164h2.126v1.475h-12.146v-1.475h3.103l-8.332-11.509l8.604-8.907h-4.521L153.292,36.861L153.292,36.861z"/>
			<path fill="#D57E29" d="M193.684,60.253c-0.781,0.57-1.751,0.856-2.914,0.856c-1.563,0-2.687-0.463-3.378-1.388
				c-0.688-0.921-1.104-2.072-1.252-3.45c-0.654,1.571-1.618,2.776-2.888,3.596c-1.27,0.831-2.778,1.24-4.52,1.24
				c-0.727,0-1.373-0.07-1.938-0.205c-0.559-0.135-1.088-0.338-1.574-0.589c-0.491-0.254-0.973-0.579-1.444-0.976
				c-0.474-0.396-0.966-0.822-1.473-1.295c-0.545-0.517-1.017-1.135-1.415-1.861s-0.738-1.493-1.009-2.3
				c-0.273-0.809-0.48-1.643-0.627-2.509c-0.145-0.865-0.216-1.671-0.216-2.418c0-1.454,0.271-2.922,0.814-4.397
				c0.545-1.474,1.298-2.812,2.259-4.011c0.967-1.198,2.072-2.172,3.324-2.919c1.253-0.748,2.589-1.122,4.006-1.122
				c0.868,0,1.669,0.164,2.396,0.502c0.726,0.331,1.358,0.747,1.904,1.24c0.546,0.489,1.01,1.03,1.389,1.621
				c0.384,0.588,0.685,1.14,0.899,1.651h0.109v-4.66c0.328,0,0.752-0.008,1.279-0.032c0.527-0.015,1.082-0.047,1.661-0.086
				c0.584-0.039,1.137-0.078,1.662-0.117c0.523-0.041,0.972-0.08,1.334-0.119v20.888c0,0.394,0.136,0.675,0.408,0.854
				c0.271,0.18,0.572,0.27,0.897,0.27c0.329,0,0.674-0.167,1.036-0.505c0.36-0.333,0.655-0.618,0.872-0.855l0.653,0.825
				C195.218,58.927,194.465,59.686,193.684,60.253z M186.14,46.713c0-0.945-0.137-1.937-0.406-2.98
				c-0.273-1.042-0.685-2.014-1.229-2.921c-0.543-0.903-1.217-1.65-2.017-2.24c-0.8-0.589-1.723-0.887-2.773-0.887
				c-0.913,0-1.628,0.18-2.152,0.533c-0.531,0.354-0.928,0.825-1.198,1.415c-0.275,0.589-0.459,1.279-0.545,2.065
				c-0.092,0.786-0.137,1.595-0.137,2.419v10.504c0,1.416,0.281,2.656,0.844,3.718c0.563,1.058,1.587,1.592,3.075,1.592
				c0.835,0,1.643-0.22,2.424-0.647c0.78-0.435,1.48-1.003,2.101-1.712c0.617-0.708,1.104-1.505,1.47-2.392
				c0.362-0.883,0.545-1.759,0.545-2.624L186.14,46.713L186.14,46.713z"/>
			<path fill="#D57E29" d="M198.288,60.228v-1.475h3.979V38.336h-3.979V36.86c1.635,0.079,3.269,0.079,4.901,0
				c1.635-0.079,3.289-0.157,4.953-0.235v22.127h4.037v1.475L198.288,60.228L198.288,60.228z"/>
			<path fill="#D57E29" d="M228.078,20.811h17.381v1.478h-5.396l7.625,13.512l8.553-13.512h-6.15v-1.478h13.178v1.478h-5.17
				l-9.533,15.043l12.521,21.421h4.203v1.475h-17.814v-1.475h5.607l-8.553-14.871l-9.641,14.871h6.43v1.475h-13.453v-1.475h5.117
				l10.514-16.404l-11.275-20.061h-4.143V20.811L228.078,20.811z"/>
			<path fill="#D57E29" d="M279.447,72.559v1.476H265.83v-1.476h3.918V48.367c0-1.654,0.275-3.195,0.82-4.634
				c0.545-1.435,1.293-2.694,2.262-3.776c0.963-1.079,2.104-1.926,3.432-2.539c1.324-0.605,2.752-0.912,4.277-0.912
				c1.521,0,2.982,0.334,4.383,1.004c1.398,0.669,2.609,1.581,3.65,2.742c1.033,1.162,1.859,2.489,2.479,3.982
				c0.611,1.495,0.922,3.068,0.922,4.721c0,1.652-0.32,3.215-0.949,4.688c-0.635,1.476-1.475,2.768-2.508,3.867
				c-1.033,1.101-2.193,1.972-3.488,2.627c-1.289,0.647-2.604,0.97-3.945,0.97c-0.582,0-1.162-0.088-1.738-0.261
				c-0.59-0.182-1.129-0.432-1.637-0.745c-0.514-0.313-0.957-0.683-1.332-1.116c-0.387-0.437-0.65-0.925-0.793-1.475v15.047h3.865
				V72.559z M285.465,44.385c-0.018-1.398-0.172-2.587-0.463-3.573c-0.287-0.982-0.771-1.747-1.439-2.3
				c-0.674-0.551-1.684-0.826-3.023-0.826c-1.346,0-2.354,0.275-3.023,0.826c-0.674,0.553-1.152,1.318-1.441,2.3
				c-0.293,0.986-0.449,2.175-0.467,3.573c-0.018,1.395-0.025,2.919-0.025,4.572v4.722c0,0.707,0.145,1.424,0.436,2.152
				c0.289,0.729,0.689,1.393,1.195,2.005c0.51,0.611,1.102,1.108,1.771,1.504c0.676,0.396,1.373,0.592,2.1,0.592
				c0.979,0,1.768-0.22,2.367-0.647c0.602-0.435,1.049-1.092,1.336-1.982c0.291-0.882,0.479-2.011,0.57-3.388
				c0.094-1.381,0.137-3.032,0.137-4.958C285.492,47.304,285.482,45.78,285.465,44.385z"/>
			<path fill="#D57E29" d="M306.793,61.109c-1.639,0-3.061-0.296-4.279-0.882c-1.215-0.595-2.244-1.417-3.072-2.479
				c-0.838-1.062-1.465-2.339-1.879-3.834c-0.426-1.497-0.627-3.147-0.627-4.958c0-1.653,0.309-3.227,0.922-4.721
				c0.619-1.494,1.445-2.821,2.475-3.982c1.039-1.162,2.258-2.073,3.654-2.742c1.396-0.67,2.863-1.004,4.385-1.004v1.178
				c-1.342,0-2.354,0.275-3.023,0.826c-0.668,0.553-1.148,1.318-1.443,2.3c-0.289,0.986-0.441,2.175-0.463,3.573
				c-0.014,1.395-0.021,2.919-0.021,4.572c0,1.731,0.016,3.273,0.047,4.631c0.041,1.357,0.156,2.508,0.359,3.454
				c0.193,0.941,0.494,1.657,0.895,2.151c0.4,0.493,0.982,0.739,1.752,0.739c0.648,0,1.145-0.142,1.49-0.413
				c0.346-0.277,0.6-0.697,0.768-1.271c0.16-0.568,0.258-1.314,0.297-2.24c0.035-0.924,0.053-2.037,0.053-3.333v-6.079h5.773v6.079
				c0,1.297,0.018,2.41,0.057,3.333c0.031,0.926,0.137,1.671,0.305,2.24c0.162,0.573,0.412,0.993,0.758,1.271
				c0.344,0.271,0.84,0.413,1.498,0.413c0.727,0,1.287-0.246,1.688-0.739c0.398-0.494,0.699-1.21,0.904-2.151
				c0.191-0.946,0.324-2.097,0.377-3.454c0.051-1.357,0.088-2.9,0.088-4.631c0-1.653-0.016-3.177-0.037-4.572
				c-0.016-1.398-0.17-2.587-0.459-3.573c-0.291-0.982-0.773-1.747-1.445-2.3c-0.674-0.551-1.684-0.826-3.023-0.826v-1.178
				c1.531,0,2.984,0.334,4.387,1.004c1.396,0.669,2.619,1.572,3.652,2.711c1.027,1.141,1.859,2.458,2.477,3.955
				c0.621,1.497,0.928,3.067,0.928,4.72c0,1.769-0.209,3.4-0.629,4.896c-0.42,1.498-1.045,2.784-1.877,3.867
				c-0.836,1.083-1.861,1.929-3.08,2.535c-1.217,0.608-2.645,0.915-4.275,0.915c-1.271,0-2.369-0.399-3.297-1.207
				c-0.928-0.811-1.553-1.744-1.879-2.803c-0.326,1.059-0.951,1.993-1.879,2.803C309.158,60.709,308.061,61.109,306.793,61.109z
				 M313.326,29.193h-2.396l2.727-5.609c0.326-0.627,0.693-1.281,1.092-1.948c0.396-0.667,0.898-1.035,1.52-1.113
				c0.512-0.078,1.09,0.054,1.748,0.407c0.65,0.353,1.014,0.824,1.086,1.413c0.07,0.354-0.055,0.779-0.377,1.274
				c-0.33,0.485-0.641,0.871-0.928,1.146L313.326,29.193z"/>
			<path fill="#D57E29" d="M349.113,55.503c-0.361,0.788-0.799,1.529-1.309,2.215c-0.506,0.687-1.104,1.279-1.797,1.766
				c-0.688,0.498-1.498,0.89-2.424,1.183c-0.93,0.294-2.023,0.442-3.297,0.442v11.449h3.814v1.475h-13.617v-1.475h3.928V38.336
				h-3.549V36.86c1.385,0.079,2.891,0.079,4.525,0c1.631-0.079,3.268-0.157,4.896-0.235v18.349c0,0.593,0,1.158,0,1.712
				c0,0.513,0.076,0.955,0.223,1.327c0.145,0.372,0.395,0.671,0.76,0.887c0.361,0.216,0.887,0.325,1.584,0.325
				c0.504,0,1.119-0.168,1.848-0.504c0.727-0.336,1.436-0.867,2.129-1.591c0.688-0.728,1.266-1.708,1.738-2.921
				c0.475-1.219,0.711-2.713,0.711-4.487V38.336h-4.145V36.86c1.674,0.079,3.33,0.079,4.973,0c1.643-0.079,3.271-0.157,4.889-0.235
				v22.127h3.758v1.475c-1.631,0-3.246,0-4.836,0c-1.547,0-3.094,0.156-4.639,0.472v-5.196H349.113z"/>
			<path fill="#D57E29" d="M386.779,60.253c-0.775,0.57-1.756,0.856-2.914,0.856c-1.561,0-2.684-0.463-3.377-1.388
				c-0.686-0.921-1.105-2.072-1.252-3.45c-0.646,1.571-1.615,2.776-2.891,3.596c-1.264,0.831-2.771,1.24-4.52,1.24
				c-0.727,0-1.365-0.07-1.934-0.205c-0.563-0.135-1.09-0.338-1.58-0.589c-0.484-0.254-0.969-0.579-1.438-0.976
				c-0.475-0.396-0.965-0.822-1.473-1.295c-0.547-0.517-1.021-1.135-1.418-1.861c-0.398-0.726-0.736-1.493-1.006-2.3
				c-0.273-0.809-0.48-1.643-0.629-2.509c-0.143-0.865-0.217-1.671-0.217-2.418c0-1.454,0.271-2.922,0.813-4.397
				c0.547-1.474,1.301-2.812,2.264-4.011c0.963-1.198,2.07-2.172,3.32-2.919c1.254-0.748,2.588-1.122,4.006-1.122
				c0.869,0,1.67,0.164,2.396,0.502c0.723,0.331,1.361,0.747,1.904,1.24c0.545,0.489,1.008,1.03,1.385,1.621
				c0.387,0.588,0.691,1.14,0.904,1.651h0.107v-4.66c0.326,0,0.756-0.008,1.281-0.032c0.521-0.015,1.076-0.047,1.664-0.086
				c0.574-0.039,1.131-0.078,1.66-0.117c0.523-0.041,0.971-0.08,1.332-0.119v20.888c0,0.394,0.139,0.675,0.408,0.854
				c0.271,0.18,0.57,0.27,0.898,0.27c0.326,0,0.674-0.167,1.035-0.505c0.367-0.333,0.652-0.618,0.867-0.855l0.66,0.825
				C388.314,58.927,387.561,59.686,386.779,60.253z M379.236,46.713c0-0.945-0.137-1.937-0.406-2.98
				c-0.275-1.042-0.686-2.014-1.232-2.921c-0.543-0.903-1.213-1.65-2.014-2.24c-0.793-0.589-1.723-0.887-2.771-0.887
				c-0.912,0-1.625,0.18-2.156,0.533c-0.523,0.354-0.924,0.825-1.197,1.415c-0.271,0.589-0.451,1.279-0.541,2.065
				c-0.094,0.786-0.141,1.595-0.141,2.419v10.504c0,1.416,0.283,2.656,0.848,3.718c0.559,1.058,1.586,1.592,3.076,1.592
				c0.836,0,1.645-0.22,2.422-0.647c0.783-0.435,1.482-1.003,2.1-1.712c0.615-0.708,1.107-1.505,1.467-2.392
				c0.365-0.883,0.549-1.759,0.549-2.624v-5.843H379.236z"/>
		</g>
	</g>
	<g>
		<path fill="#D57E29" d="M57.355,95.895c-1.162-1.131-2.116-2.063-2.865-2.797c-0.749-0.732-1.341-1.311-1.776-1.729
			c-0.435-0.42-0.749-0.722-0.938-0.905c-0.19-0.184-0.31-0.298-0.355-0.344s-0.054-0.059-0.022-0.034
			c0.03,0.022,0.038,0.034,0.022,0.034v5.592l-1.329,0.275V84.229l1.329-0.274v5.845c0.016-0.016,0.008-0.008-0.022,0.021
			c-0.031,0.031-0.023,0.021,0.022-0.033c0.046-0.055,0.152-0.176,0.321-0.367c0.168-0.189,0.443-0.504,0.825-0.939
			c0.382-0.435,0.896-1.03,1.547-1.787c0.649-0.756,1.479-1.723,2.487-2.898l1.054,0.643l-4.652,5.408l0.046,0.045
			c0-0.015,0.026,0.008,0.08,0.069c0.055,0.062,0.161,0.172,0.321,0.332c0.161,0.16,0.428,0.433,0.802,0.813
			s0.878,0.894,1.514,1.535c0.634,0.643,1.446,1.467,2.439,2.476L57.355,95.895z"/>
		<path fill="#D57E29" d="M73.695,95.984v-2.199H73.65c-0.214,0.29-0.481,0.564-0.802,0.824c-0.321,0.261-0.681,0.492-1.077,0.699
			c-0.397,0.207-0.817,0.371-1.26,0.492c-0.443,0.122-0.902,0.184-1.375,0.184c-0.842,0-1.624-0.146-2.35-0.436
			s-1.359-0.703-1.901-1.236c-0.542-0.535-0.971-1.178-1.283-1.927c-0.313-0.747-0.471-1.573-0.471-2.475
			c0-0.841,0.152-1.623,0.458-2.349c0.306-0.727,0.729-1.36,1.271-1.902s1.176-0.967,1.902-1.271
			c0.726-0.306,1.501-0.459,2.325-0.459c0.947,0,1.803,0.219,2.566,0.653c0.764,0.437,1.429,0.974,1.994,1.615h0.045v-1.972
			l1.33-0.274V95.71L73.695,95.984z M73.317,87.997c-0.252-0.578-0.592-1.067-1.021-1.472c-0.428-0.402-0.924-0.711-1.488-0.924
			c-0.565-0.213-1.162-0.318-1.788-0.318c-0.688,0-1.311,0.133-1.868,0.398c-0.558,0.267-1.035,0.619-1.433,1.061
			s-0.707,0.936-0.929,1.482s-0.333,1.108-0.333,1.688c0,0.669,0.111,1.293,0.333,1.87s0.53,1.075,0.929,1.493
			c0.396,0.418,0.882,0.748,1.456,0.992c0.572,0.244,1.202,0.364,1.891,0.364c0.642,0,1.245-0.125,1.811-0.376
			s1.055-0.589,1.467-1.015c0.411-0.427,0.74-0.921,0.984-1.482c0.245-0.563,0.367-1.155,0.367-1.778
			C73.695,89.236,73.569,88.574,73.317,87.997z"/>
		<path fill="#D57E29" d="M91.226,95.71l-4.033-8.388l-4.606,8.388l-1.306-0.274l5.156-9.511l-2.842-5.936l1.283-0.275l7.678,15.722
			L91.226,95.71z"/>
		<path fill="#D57E29" d="M107.817,95.71l-4.033-8.388l-4.605,8.388l-1.307-0.274l5.156-9.511l-2.842-5.936l1.284-0.275
			l7.677,15.722L107.817,95.71z"/>
		<path fill="#D57E29" d="M116.021,95.984V84.206l1.329-0.274V95.71L116.021,95.984z"/>
		<path fill="#D57E29" d="M130.665,85.559h-2.452V95.71l-1.328,0.274V85.559h-2.819l0.321-1.353h6.278V85.559z"/>
		<path fill="#D57E29" d="M142.765,95.688c-0.719,0.213-1.49,0.32-2.314,0.32c-0.535,0-1.058-0.068-1.57-0.206
			c-0.512-0.138-0.967-0.344-1.363-0.618c-0.397-0.274-0.719-0.615-0.962-1.021c-0.245-0.404-0.367-0.882-0.367-1.433
			c0-0.383,0.068-0.748,0.206-1.101s0.333-0.665,0.584-0.938c0.252-0.275,0.55-0.508,0.894-0.699
			c0.344-0.19,0.723-0.311,1.134-0.355c-0.412-0.046-0.764-0.145-1.054-0.298c-0.291-0.151-0.526-0.353-0.71-0.596
			c-0.184-0.244-0.321-0.513-0.413-0.802c-0.092-0.291-0.137-0.596-0.137-0.918c0-0.52,0.114-0.974,0.344-1.362
			c0.229-0.39,0.534-0.711,0.917-0.963c0.382-0.253,0.817-0.438,1.307-0.562c0.488-0.123,0.984-0.185,1.489-0.185
			c0.413,0,0.791,0.022,1.135,0.069c0.343,0.045,0.668,0.117,0.974,0.218c0.305,0.1,0.603,0.218,0.894,0.354
			c0.29,0.137,0.588,0.299,0.895,0.48v1.467c-0.336-0.266-0.661-0.471-0.975-0.618c-0.313-0.147-0.698-0.288-1.156-0.42
			c-0.458-0.133-0.985-0.198-1.582-0.198c-0.261,0-0.551,0.034-0.871,0.104c-0.321,0.068-0.623,0.177-0.905,0.322
			c-0.282,0.146-0.52,0.332-0.71,0.555c-0.191,0.223-0.287,0.495-0.287,0.818c0,0.414,0.099,0.748,0.298,1.002
			s0.455,0.453,0.769,0.601c0.313,0.146,0.652,0.242,1.02,0.288s0.71,0.068,1.031,0.068h1.375v1.261h-1.489
			c-0.352,0-0.726,0.034-1.123,0.104c-0.396,0.067-0.768,0.193-1.11,0.377c-0.344,0.185-0.627,0.428-0.849,0.733
			s-0.332,0.688-0.332,1.146c0,0.367,0.083,0.682,0.252,0.94c0.168,0.26,0.391,0.474,0.665,0.642
			c0.275,0.168,0.584,0.295,0.929,0.379c0.344,0.084,0.684,0.125,1.02,0.125c0.703,0,1.421-0.151,2.154-0.457
			c0.732-0.307,1.443-0.727,2.131-1.262v1.581C144.193,95.122,143.483,95.475,142.765,95.688z"/>
		<path fill="#D57E29" d="M159.126,95.895l-3.919-5.021l-0.021,0.046l-3.69,4.975l-1.26-0.551l4.079-5.592l-4.103-5.271l1.191-0.549
			l3.804,4.836l0.046-0.047l3.645-4.789l1.19,0.549l-4.032,5.271l4.263,5.592L159.126,95.895z"/>
		<path fill="#D57E29" d="M170.035,95.984h-0.046l-5.546-11.778l1.284-0.274l4.285,8.846l0.022-0.047l4.125-8.799l1.421,0.274
			L170.035,95.984z"/>
		<path fill="#D57E29" d="M181.562,95.984V84.206l1.329-0.274V95.71L181.562,95.984z"/>
		<path fill="#D57E29" d="M197.81,95.895c-1.162-1.131-2.116-2.063-2.865-2.797c-0.749-0.732-1.341-1.311-1.776-1.729
			c-0.435-0.42-0.749-0.722-0.938-0.905c-0.19-0.184-0.31-0.298-0.355-0.344s-0.054-0.059-0.022-0.034
			c0.029,0.022,0.038,0.034,0.022,0.034v5.592l-1.329,0.275V84.229l1.329-0.274v5.845c0.016-0.016,0.007-0.008-0.022,0.021
			c-0.031,0.031-0.023,0.021,0.022-0.033c0.046-0.055,0.152-0.176,0.321-0.367c0.168-0.189,0.443-0.504,0.825-0.939
			c0.382-0.435,0.896-1.03,1.547-1.787c0.649-0.756,1.479-1.723,2.487-2.898l1.054,0.643l-4.652,5.408l0.046,0.045
			c0-0.015,0.026,0.008,0.08,0.069c0.055,0.062,0.161,0.172,0.321,0.332c0.161,0.16,0.428,0.433,0.802,0.813
			s0.878,0.894,1.514,1.535c0.634,0.643,1.446,1.467,2.439,2.476L197.81,95.895z"/>
		<path fill="#D57E29" d="M214.664,92.204c-0.299,0.718-0.707,1.358-1.227,1.925s-1.139,1.016-1.855,1.352
			c-0.719,0.336-1.506,0.506-2.359,0.506c-0.842,0-1.623-0.17-2.35-0.506c-0.726-0.336-1.349-0.785-1.868-1.352
			c-0.52-0.564-0.928-1.207-1.226-1.925c-0.298-0.72-0.447-1.468-0.447-2.246s0.149-1.526,0.447-2.246
			c0.298-0.718,0.707-1.358,1.226-1.925c0.52-0.564,1.143-1.016,1.868-1.354c0.727-0.336,1.508-0.504,2.35-0.504
			c0.854,0,1.643,0.168,2.359,0.504c0.717,0.338,1.336,0.787,1.855,1.354s0.928,1.207,1.227,1.925
			c0.297,0.72,0.447,1.468,0.447,2.246S214.961,91.484,214.664,92.204z M213.439,88.202c-0.23-0.563-0.549-1.062-0.963-1.494
			c-0.412-0.433-0.896-0.778-1.455-1.037s-1.156-0.388-1.799-0.388s-1.24,0.129-1.8,0.388c-0.558,0.259-1.042,0.604-1.454,1.037
			c-0.413,0.435-0.733,0.933-0.963,1.494c-0.229,0.563-0.344,1.147-0.344,1.756s0.114,1.192,0.344,1.756s0.551,1.062,0.963,1.494
			s0.896,0.778,1.454,1.037c0.56,0.259,1.158,0.388,1.8,0.388s1.24-0.129,1.799-0.388s1.043-0.604,1.455-1.037
			c0.414-0.435,0.732-0.933,0.963-1.494c0.229-0.562,0.344-1.147,0.344-1.756S213.666,88.766,213.439,88.202z M208.971,82.739
			h-1.191l2.543-3.187h1.766L208.971,82.739z"/>
		<path fill="#D57E29" d="M237.754,95.688c-0.719,0.213-1.488,0.32-2.314,0.32c-0.535,0-1.059-0.068-1.57-0.206
			c-0.51-0.138-0.965-0.344-1.363-0.618c-0.396-0.274-0.717-0.615-0.963-1.021c-0.244-0.404-0.365-0.882-0.365-1.433
			c0-0.383,0.068-0.748,0.207-1.101c0.137-0.353,0.33-0.665,0.584-0.938c0.252-0.275,0.551-0.508,0.895-0.699
			c0.344-0.19,0.721-0.311,1.133-0.355c-0.412-0.046-0.764-0.145-1.053-0.298c-0.291-0.151-0.527-0.353-0.711-0.596
			c-0.184-0.244-0.32-0.513-0.412-0.802c-0.092-0.291-0.139-0.596-0.139-0.918c0-0.52,0.115-0.974,0.344-1.362
			c0.229-0.39,0.535-0.711,0.918-0.963c0.381-0.253,0.816-0.438,1.307-0.562c0.488-0.123,0.984-0.185,1.488-0.185
			c0.412,0,0.791,0.022,1.135,0.069c0.346,0.045,0.668,0.117,0.975,0.218c0.307,0.1,0.604,0.218,0.895,0.354
			c0.289,0.137,0.588,0.299,0.895,0.48v1.467c-0.338-0.266-0.662-0.471-0.975-0.618s-0.699-0.288-1.158-0.42
			c-0.457-0.133-0.984-0.198-1.58-0.198c-0.262,0-0.551,0.034-0.871,0.104c-0.32,0.068-0.623,0.177-0.904,0.322
			c-0.283,0.146-0.521,0.332-0.711,0.555c-0.191,0.223-0.287,0.495-0.287,0.818c0,0.414,0.1,0.748,0.299,1.002
			c0.197,0.254,0.455,0.453,0.768,0.601c0.313,0.146,0.652,0.242,1.021,0.288c0.365,0.046,0.709,0.068,1.031,0.068h1.375v1.261
			h-1.49c-0.352,0-0.727,0.034-1.123,0.104c-0.396,0.067-0.768,0.193-1.111,0.377c-0.344,0.185-0.627,0.428-0.848,0.733
			c-0.223,0.305-0.332,0.688-0.332,1.146c0,0.367,0.084,0.682,0.252,0.94s0.389,0.474,0.664,0.642s0.584,0.295,0.928,0.379
			c0.346,0.084,0.686,0.125,1.021,0.125c0.703,0,1.42-0.151,2.154-0.457c0.732-0.307,1.441-0.727,2.131-1.262v1.581
			C239.184,95.122,238.473,95.475,237.754,95.688z"/>
		<path fill="#D57E29" d="M257.943,92.354c-0.307,0.726-0.73,1.359-1.271,1.901c-0.543,0.542-1.178,0.966-1.902,1.271
			c-0.725,0.306-1.5,0.459-2.326,0.459c-0.473,0-0.939-0.068-1.396-0.207c-0.459-0.137-0.895-0.319-1.307-0.549
			s-0.783-0.492-1.111-0.791c-0.328-0.297-0.592-0.606-0.791-0.929v6.142l-1.328,0.275v-6.736c0-0.901,0.004-1.678,0.012-2.326
			c0.008-0.649,0.037-1.223,0.092-1.719c0.053-0.496,0.146-0.943,0.275-1.342c0.129-0.396,0.314-0.787,0.561-1.169
			c0.275-0.428,0.596-0.81,0.963-1.146s0.768-0.619,1.203-0.85c0.436-0.229,0.889-0.404,1.363-0.525
			c0.473-0.122,0.947-0.184,1.422-0.184c0.84,0,1.623,0.163,2.348,0.492c0.727,0.328,1.359,0.771,1.902,1.329
			s0.971,1.203,1.283,1.937s0.471,1.506,0.471,2.314C258.402,90.844,258.248,91.627,257.943,92.354z M256.74,88.134
			c-0.221-0.577-0.531-1.075-0.928-1.493c-0.398-0.418-0.883-0.748-1.455-0.992c-0.574-0.244-1.203-0.364-1.893-0.364
			c-0.641,0-1.244,0.125-1.811,0.376s-1.053,0.589-1.467,1.015c-0.412,0.427-0.74,0.921-0.984,1.482s-0.367,1.155-0.367,1.778
			c0,0.744,0.127,1.406,0.379,1.983c0.252,0.578,0.592,1.067,1.02,1.472c0.428,0.402,0.924,0.711,1.49,0.924
			c0.564,0.213,1.16,0.318,1.787,0.318c0.688,0,1.311-0.133,1.867-0.398c0.559-0.267,1.035-0.619,1.434-1.061
			c0.396-0.441,0.707-0.939,0.928-1.494s0.332-1.113,0.332-1.677C257.072,89.334,256.961,88.711,256.74,88.134z"/>
		<path fill="#D57E29" d="M269.494,94.633v5.11l-1.33,0.274v-5.386l-4.902-10.427l1.281-0.275l4.287,8.846l0.092-0.183l4.057-8.663
			l1.42,0.275L269.494,94.633z"/>
		<path fill="#D57E29" d="M289.797,95.984v-2.199h-0.047c-0.213,0.29-0.48,0.564-0.801,0.824c-0.322,0.261-0.68,0.492-1.078,0.699
			c-0.396,0.207-0.816,0.371-1.26,0.492c-0.445,0.122-0.902,0.184-1.375,0.184c-0.84,0-1.623-0.146-2.35-0.436
			s-1.359-0.703-1.902-1.236c-0.541-0.535-0.971-1.178-1.283-1.927c-0.313-0.747-0.469-1.573-0.469-2.475
			c0-0.841,0.152-1.623,0.457-2.349c0.307-0.727,0.729-1.36,1.271-1.902s1.178-0.967,1.902-1.271
			c0.727-0.306,1.502-0.459,2.326-0.459c0.947,0,1.803,0.219,2.566,0.653c0.764,0.437,1.428,0.974,1.992,1.615h0.047v-1.972
			l1.328-0.274V95.71L289.797,95.984z M289.418,87.997c-0.252-0.578-0.592-1.067-1.02-1.472c-0.428-0.402-0.924-0.711-1.49-0.924
			c-0.564-0.213-1.16-0.318-1.787-0.318c-0.688,0-1.311,0.133-1.867,0.398c-0.559,0.267-1.035,0.619-1.432,1.061
			s-0.707,0.936-0.93,1.482c-0.223,0.545-0.332,1.108-0.332,1.688c0,0.669,0.109,1.293,0.332,1.87s0.531,1.075,0.93,1.493
			c0.396,0.418,0.881,0.748,1.455,0.992c0.572,0.244,1.203,0.364,1.891,0.364c0.643,0,1.244-0.125,1.811-0.376
			c0.564-0.251,1.055-0.589,1.467-1.015c0.412-0.427,0.74-0.921,0.986-1.482c0.242-0.563,0.365-1.155,0.365-1.778
			C289.797,89.236,289.67,88.574,289.418,87.997z"/>
		<path fill="#D57E29" d="M309.529,85.352h-2.637c0.367,0.185,0.703,0.443,1.01,0.779c0.305,0.336,0.561,0.71,0.768,1.123
			c0.205,0.412,0.365,0.852,0.48,1.316c0.115,0.467,0.172,0.929,0.172,1.388c0,0.778-0.148,1.526-0.447,2.246
			c-0.297,0.718-0.707,1.358-1.225,1.925c-0.521,0.564-1.139,1.016-1.857,1.352s-1.504,0.506-2.359,0.506
			c-0.84,0-1.623-0.17-2.35-0.506s-1.348-0.785-1.867-1.352s-0.93-1.207-1.227-1.925c-0.299-0.72-0.447-1.468-0.447-2.246
			s0.148-1.526,0.447-2.246c0.297-0.718,0.707-1.358,1.227-1.925s1.143-1.016,1.867-1.354c0.727-0.336,1.51-0.504,2.35-0.504
			c0.092,0,0.367,0.021,0.826,0.059c0.457,0.037,1.008,0.057,1.648,0.057h4.01L309.529,85.352z M307.65,88.188
			c-0.23-0.564-0.551-1.063-0.963-1.498s-0.898-0.78-1.455-1.041c-0.559-0.258-1.158-0.389-1.799-0.389
			c-0.643,0-1.242,0.131-1.799,0.389c-0.561,0.261-1.045,0.606-1.457,1.041s-0.732,0.934-0.963,1.498
			c-0.229,0.563-0.344,1.149-0.344,1.76c0,0.609,0.115,1.195,0.344,1.761c0.23,0.563,0.551,1.063,0.963,1.497
			c0.412,0.436,0.896,0.781,1.457,1.04c0.557,0.26,1.156,0.389,1.799,0.389c0.641,0,1.24-0.129,1.799-0.389
			c0.557-0.259,1.043-0.604,1.455-1.04s0.732-0.934,0.963-1.497c0.229-0.563,0.344-1.149,0.344-1.761
			C307.994,89.337,307.877,88.75,307.65,88.188z"/>
		<path fill="#D57E29" d="M321.24,85.559h-2.453V95.71l-1.328,0.274V85.559h-2.818l0.32-1.353h6.279V85.559z"/>
		<path fill="#D57E29" d="M334.967,95.895v-8.205c0-0.84-0.258-1.479-0.77-1.914c-0.512-0.435-1.225-0.652-2.143-0.652
			c-0.32,0-0.676,0.063-1.064,0.184c-0.389,0.123-0.762,0.311-1.111,0.563c-0.354,0.252-0.646,0.576-0.883,0.974
			s-0.355,0.871-0.355,1.421v7.448l-1.328,0.185v-11.69l1.328-0.274v1.901h0.047c0.305-0.521,0.76-0.967,1.363-1.341
			s1.256-0.563,1.959-0.563c0.551,0,1.086,0.063,1.604,0.185c0.52,0.122,0.979,0.34,1.375,0.653
			c0.396,0.313,0.715,0.729,0.951,1.248c0.236,0.521,0.354,1.176,0.354,1.971v7.724L334.967,95.895z M331.85,82.739h-1.191
			l2.543-3.187h1.766L331.85,82.739z"/>
		<path fill="#D57E29" d="M354.904,92.354c-0.307,0.726-0.729,1.359-1.271,1.901c-0.541,0.542-1.178,0.966-1.902,1.271
			c-0.725,0.306-1.5,0.459-2.326,0.459c-0.473,0-0.938-0.068-1.396-0.207c-0.457-0.137-0.895-0.319-1.307-0.549
			s-0.783-0.492-1.111-0.791c-0.328-0.297-0.592-0.606-0.789-0.929v6.142l-1.33,0.275v-6.736c0-0.901,0.004-1.678,0.012-2.326
			c0.008-0.649,0.037-1.223,0.092-1.719c0.053-0.496,0.146-0.943,0.275-1.342c0.129-0.396,0.314-0.787,0.561-1.169
			c0.275-0.428,0.596-0.81,0.963-1.146s0.768-0.619,1.203-0.85c0.436-0.229,0.891-0.404,1.363-0.525
			c0.473-0.122,0.947-0.184,1.422-0.184c0.84,0,1.623,0.163,2.348,0.492c0.727,0.328,1.359,0.771,1.902,1.329
			s0.971,1.203,1.283,1.937s0.471,1.506,0.471,2.314C355.363,90.844,355.209,91.627,354.904,92.354z M353.701,88.134
			c-0.221-0.577-0.531-1.075-0.928-1.493c-0.398-0.418-0.883-0.748-1.455-0.992c-0.574-0.244-1.203-0.364-1.891-0.364
			c-0.643,0-1.246,0.125-1.813,0.376c-0.564,0.251-1.053,0.589-1.467,1.015c-0.412,0.427-0.74,0.921-0.984,1.482
			s-0.365,1.155-0.365,1.778c0,0.744,0.125,1.406,0.377,1.983c0.252,0.578,0.592,1.067,1.02,1.472
			c0.428,0.402,0.924,0.711,1.49,0.924c0.564,0.213,1.16,0.318,1.787,0.318c0.688,0,1.311-0.133,1.867-0.398
			c0.559-0.267,1.035-0.619,1.434-1.061c0.396-0.441,0.707-0.939,0.928-1.494c0.223-0.555,0.332-1.113,0.332-1.677
			C354.033,89.334,353.922,88.711,353.701,88.134z"/>
		<path fill="#D57E29" d="M362.58,95.984V84.206l1.33-0.274V95.71L362.58,95.984z"/>
	</g>
</g>
</svg>
